<?xml version="1.0" encoding="UTF-8" standalone="no"?>
<!-- Created with Inkscape (http://www.inkscape.org/) -->

<svg
   xmlns:dc="http://purl.org/dc/elements/1.1/"
   xmlns:cc="http://creativecommons.org/ns#"
   xmlns:rdf="http://www.w3.org/1999/02/22-rdf-syntax-ns#"
   xmlns:svg="http://www.w3.org/2000/svg"
   xmlns="http://www.w3.org/2000/svg"
   version="1.0"
   width="512"
   height="512"
   viewBox="0 0 511.99999 512"
   id="Слой_1"
   xml:space="preserve"><metadata
   id="metadata15"><rdf:RDF><cc:Work
       rdf:about=""><dc:format>image/svg+xml</dc:format><dc:type
         rdf:resource="http://purl.org/dc/dcmitype/StillImage" /><dc:title></dc:title></cc:Work></rdf:RDF></metadata><defs
   id="defs13" />
<g
   transform="matrix(2.1961899,0,0,2.1961899,-28.114005,-20.288352)"
   id="g2992"><g
     id="g3">
	<path
   d="m 115.271,23.134 -0.086,0.177 c 0.041,-0.045 0.1,-0.073 0.149,-0.113 l -0.063,-0.064 z"
   id="path5" />
	<path
   d="m 222.891,130.754 c -0.127,0.149 -0.208,0.336 -0.345,0.476 -9.738,9.734 -41.734,-6.481 -71.475,-36.213 C 125.593,69.535 110.098,42.439 112.295,29.068 l -49.774,99.29 -29.786,29.782 c -14.467,14.476 -14.467,38.011 0,52.487 l 3.823,3.822 c 14.467,14.458 38.007,14.458 52.474,0 l 16.125,-16.125 44.04,44.045 18.86,-18.86 -42.323,-42.323 98.308,-49.276 -1.151,-1.156 z M 75.914,201.332 c -7.238,7.229 -19.001,7.229 -26.239,0 L 45.852,197.5 c -7.238,-7.237 -7.238,-18.996 0,-26.234 l 27.331,-27.331 30.058,30.058 -27.327,27.339 z"
   id="path7" />
	<path
   d="M 197.807,48.282 C 168.076,18.542 136.079,2.331 126.332,12.065 c -9.729,9.738 6.486,41.734 36.217,71.47 29.731,29.736 61.736,45.952 71.476,36.217 9.728,-9.738 -6.487,-41.739 -36.218,-71.47 z m -12.946,33.169 -5.662,5.657 -20.22,-20.22 5.653,-5.662 c 5.599,-5.589 14.639,-5.581 20.229,0 5.58,5.586 5.589,14.636 0,20.225 z"
   id="path9" />
</g></g>
</svg>