<?xml version="1.0" encoding="utf-8"?>
<!-- Generator: Adobe Illustrator 15.0.2, SVG Export Plug-In . SVG Version: 6.00 Build 0)  -->
<!DOCTYPE svg PUBLIC "-//W3C//DTD SVG 1.1//EN" "http://www.w3.org/Graphics/SVG/1.1/DTD/svg11.dtd">
<svg version="1.1"
	 id="svg2" xmlns:dc="http://purl.org/dc/elements/1.1/" xmlns:cc="http://creativecommons.org/ns#" xmlns:rdf="http://www.w3.org/1999/02/22-rdf-syntax-ns#" xmlns:svg="http://www.w3.org/2000/svg" xmlns:sodipodi="http://sodipodi.sourceforge.net/DTD/sodipodi-0.dtd" xmlns:inkscape="http://www.inkscape.org/namespaces/inkscape" inkscape:version="0.48.4 r9939" sodipodi:docname="warning.svg"
	 xmlns="http://www.w3.org/2000/svg" xmlns:xlink="http://www.w3.org/1999/xlink" x="0px" y="0px" width="512px" height="512px"
	 viewBox="-240 -240 512 512" enable-background="new -240 -240 512 512" xml:space="preserve">
<g id="Document" transform="matrix(1.0666667,0,0,-1.0666667,0,0.79999923)">
	<g id="Spread" transform="translate(0,-24)">
		<g id="MouseOff">
			
				<linearGradient id="path96_1_" gradientUnits="userSpaceOnUse" x1="-94.2526" y1="-389.9618" x2="-94.2526" y2="-543.5243" gradientTransform="matrix(1.3333 0 0 1.3333 43.287 706.8682)">
				<stop  offset="0" style="stop-color:#FFBE17"/>
				<stop  offset="1" style="stop-color:#FFA900"/>
			</linearGradient>
			<path id="path96" inkscape:connector-curvature="0" fill="url(#path96_1_)" d="M-179.376,41.588
				c-3.583,2.769-6.972,5.689-10.115,8.76l-0.065,0.036c-19.805,19.099-31.694,43.511-31.694,70.108
				c0,61.132,62.84,110.742,140.273,110.742c67.822,0,124.47-38.075,137.462-88.615c-96.51-1.197-174.376-63.569-174.376-140.252
				c0-8.45,0.923-16.712,2.74-24.744c-21.658-19.668-45.479-26.936-76.568-26.936C-155.281-12.197-152.281,15.172-179.376,41.588z"
				/>
			
				<linearGradient id="path98_1_" gradientUnits="userSpaceOnUse" x1="15.3127" y1="-642.5475" x2="15.3126" y2="-451.1479" gradientTransform="matrix(1.3333 0 0 1.3333 53.6444 684.0423)">
				<stop  offset="0" style="stop-color:#0080B1"/>
				<stop  offset="1" style="stop-color:#0996CB"/>
			</linearGradient>
			<path id="path98" inkscape:connector-curvature="0" fill="url(#path98_1_)" d="M76.86-152.906c-0.952,0-1.875,0-2.798,0
				c-97.808,0-177.187,62.957-177.187,140.391c0,77.433,79.38,140.332,177.187,140.332S251.25,65.005,251.25-12.428
				c0-45.681-27.628-86.257-70.338-111.881c-23.302-21.326-21.01-55.798,11.276-87.55C153.009-211.859,90.717-188.531,76.86-152.906
				z"/>
			<path id="path100" inkscape:connector-curvature="0" fill="#FFFFFF" d="M147.656,39.281v-15H0.469v15H147.656z"/>
			<path id="path102" inkscape:connector-curvature="0" fill="#FFFFFF" d="M147.656-4.781v-15H0.469v15H147.656z"/>
			<path id="path104" inkscape:connector-curvature="0" fill="#FFFFFF" d="M147.656-49.781v-14.062H0.469v14.062H147.656z"/>
		</g>
	</g>
</g>
</svg>
