<?xml version="1.0" encoding="utf-8"?>
<!-- Generator: Adobe Illustrator 15.0.2, SVG Export Plug-In . SVG Version: 6.00 Build 0)  -->
<!DOCTYPE svg PUBLIC "-//W3C//DTD SVG 1.1//EN" "http://www.w3.org/Graphics/SVG/1.1/DTD/svg11.dtd">
<svg version="1.1"
	 id="svg2" xmlns:sodipodi="http://sodipodi.sourceforge.net/DTD/sodipodi-0.dtd" xmlns:rdf="http://www.w3.org/1999/02/22-rdf-syntax-ns#" xmlns:cc="http://creativecommons.org/ns#" xmlns:svg="http://www.w3.org/2000/svg" xmlns:inkscape="http://www.inkscape.org/namespaces/inkscape" xmlns:dc="http://purl.org/dc/elements/1.1/" inkscape:version="0.48.4 r9939" sodipodi:docname="warning.svg"
	 xmlns="http://www.w3.org/2000/svg" xmlns:xlink="http://www.w3.org/1999/xlink" x="0px" y="0px" width="512px" height="512px"
	 viewBox="0 0 512 512" enable-background="new 0 0 512 512" xml:space="preserve">
<path fill="#4B4B4C" d="M273.024,256.559c0,9.426-7.641,17.065-17.057,17.065s-17.066-7.64-17.066-17.065
	c0-9.408,7.649-17.058,17.066-17.058S273.024,247.15,273.024,256.559z"/>
<path fill="#4B4B4C" d="M261.5,249.953c0,1.776-2.625,3.204-5.5,3.204l0,0c-2.874,0-5.5-1.428-5.5-3.204V133.47
	c0-1.776,2.626-3.205,5.5-3.205l0,0c2.875,0,5.5,1.428,5.5,3.205V249.953z"/>
<path fill="#4B4B4C" d="M352.68,256.491c0,6.141-3.606,11.009-8.069,11.009h-78.869c-4.463,0-8.06-4.868-8.06-11.009l0,0
	c0-6.115,3.597-10.991,8.06-10.991h78.869C349.073,245.5,352.68,250.376,352.68,256.491L352.68,256.491z"/>
<g>
	<path fill="#1395CD" d="M255.967,504.108c-136.503,0-247.542-111.056-247.542-247.55c0-136.486,111.038-247.533,247.542-247.533
		c136.486,0,247.542,111.047,247.542,247.533C503.509,393.053,392.453,504.108,255.967,504.108z M255.967,37.312
		c-120.901,0-219.255,98.354-219.255,219.247c0,120.909,98.354,219.255,219.255,219.255s219.247-98.346,219.247-219.255
		C475.214,135.666,376.868,37.312,255.967,37.312z"/>
</g>
<g>
	<path fill="#1395CD" d="M149.356,92c2.214,3.749,6.293,6.07,10.658,6.07l3.776-0.295l2.258-1.267
		c2.901-1.607,4.981-4.249,5.865-7.453l0.875-5.864L159.416,60.01c-7.417,3.66-14.621,7.667-21.547,12.112L149.356,92z"/>
</g>
<g>
	<path fill="#1395CD" d="M81.439,167.177l3.419,1.323h2.58c4.338,0,8.417-2.082,10.747-5.991c3.365-5.918,1.285-13.359-4.579-16.706
		l-19.69-11.316c-4.588,6.819-8.676,13.895-12.487,21.223L81.439,167.177z"/>
</g>
<g>
	<path fill="#1395CD" d="M72.424,253.665c-0.205-6.748-5.65-12.165-12.389-12.165H37.453c-0.322,5-0.741,9.854-0.741,14.79
		c0,3.392,0.357,7.21,0.509,10.21h22.814C66.658,266.5,72.219,260.931,72.424,253.665z"/>
</g>
<g>
	<path fill="#1395CD" d="M91.312,363.205c2.865-1.643,4.909-4.32,5.757-7.516l0.83-5.749l-2.053-3.588
		c-2.187-3.803-6.293-6.177-10.693-6.177l-3.874,0.321l-21.868,12.621c3.66,7.408,7.658,14.603,12.104,21.512L91.312,363.205z"/>
</g>
<g>
	<path fill="#1395CD" d="M166.708,431.22c3.32-5.838,1.33-13.483-4.677-17.036l-3.437-1.684h-2.606
		c-4.472,0-8.604,2.541-10.702,6.324l-11.363,19.729c6.819,4.588,13.978,8.704,21.306,12.524L166.708,431.22z"/>
</g>
<g>
	<path fill="#1395CD" d="M265.991,475.313l-0.018-22.62c0-6.818-5.534-12.193-12.63-12.193h-0.009
		c-6.704,0-12.113,5.607-12.059,12.193l0.009,22.486c4.874,0.321,9.729,0.683,14.683,0.683
		C259.351,475.862,262.644,475.456,265.991,475.313z"/>
</g>
<g>
	<path fill="#1395CD" d="M430.656,346.033l-3.499-1.533h-2.714c-4.32,0-8.391,2.141-10.925,6.336c-3.143,5.98-1,13.19,4.784,16.476
		l19.708,11.354c4.57-6.819,8.676-13.924,12.496-21.261L430.656,346.033z"/>
</g>
<g>
	<path fill="#1395CD" d="M362.641,421.33c-2.178-3.892-6.319-6.284-10.801-6.284l-3.944,0.286l-2.41,1.464
		c-5.767,3.552-7.641,10.89-4.267,16.78l11.282,19.548c7.426-3.66,14.62-7.658,21.529-12.086L362.641,421.33z"/>
</g>
<g>
	<path fill="#1395CD" d="M439.311,259.2c0.196,6.748,6.189,12.032,12.189,12.032v-10.033l0.399,10.301h22.583
		c0.321-5,0.731-9.846,0.731-14.808c0-3.375-0.357-6.735-0.5-10.082l-22.896-0.016C445.105,246.595,439.472,251.997,439.311,259.2z"
		/>
</g>
<g>
	<path fill="#1395CD" d="M416.268,167.201c2.285,3.615,6.212,5.766,10.479,5.766l3.892-0.33l21.869-12.63
		c-3.643-7.408-7.641-14.603-12.086-21.511l-19.762,11.416C414.804,153.241,412.679,160.748,416.268,167.201z"/>
</g>
<g>
	<path fill="#1395CD" d="M356.696,62.027L345.146,82.03c-3.249,5.847-1.32,13.185,4.999,17.05l3.284,1.42h2.429
		c4.498,0,8.657-2.482,10.765-6.276l11.371-19.696C371.174,69.94,364.016,65.839,356.696,62.027z"/>
</g>
<g>
	<path fill="#1395CD" d="M255.919,37.312c-3.383,0-6.661,0.357-10.009,0.509l0.021,22.824c0,6.641,5.406,12.219,12.047,12.416
		l0.352,0.026l0.292-0.026c6.837-0.25,11.878-5.811,11.878-12.434V38.053C265.5,37.731,260.863,37.312,255.919,37.312z"/>
</g>
</svg>
