<?xml version="1.0" encoding="utf-8"?>
<!-- Generator: Adobe Illustrator 15.0.2, SVG Export Plug-In . SVG Version: 6.00 Build 0)  -->
<!DOCTYPE svg PUBLIC "-//W3C//DTD SVG 1.1//EN" "http://www.w3.org/Graphics/SVG/1.1/DTD/svg11.dtd">
<svg version="1.1"
	 id="svg2" xmlns:sodipodi="http://sodipodi.sourceforge.net/DTD/sodipodi-0.dtd" xmlns:rdf="http://www.w3.org/1999/02/22-rdf-syntax-ns#" xmlns:cc="http://creativecommons.org/ns#" xmlns:svg="http://www.w3.org/2000/svg" xmlns:inkscape="http://www.inkscape.org/namespaces/inkscape" xmlns:dc="http://purl.org/dc/elements/1.1/" inkscape:version="0.48.4 r9939" sodipodi:docname="warning.svg"
	 xmlns="http://www.w3.org/2000/svg" xmlns:xlink="http://www.w3.org/1999/xlink" x="0px" y="0px" width="512px" height="512px"
	 viewBox="0 0 512 512" enable-background="new 0 0 512 512" xml:space="preserve">
<linearGradient id="SVGID_1_" gradientUnits="userSpaceOnUse" x1="256.4956" y1="541.832" x2="256.4956" y2="-21.9424">
	<stop  offset="0" style="stop-color:#41B349"/>
	<stop  offset="1" style="stop-color:#6EBD44"/>
</linearGradient>
<path fill="url(#SVGID_1_)" d="M357.214,235.972c-14.895-7.491-35.714-12.021-63.714-17.996v-92.712
	c10,1.639,19.208,4.356,24.179,8.128c11.28,8.601,25.148,28.108,25.148,49.108h74.011c0-50-21.218-68.832-40.324-84.096
	C358.235,83.14,327.5,69.072,293.5,62.585V9.5h-74v51.428c-16,2.115-31.124,5.623-44.132,10.981
	c-21.574,8.866-43.195,19.794-60.503,40.223c-11.501,16.938-17.235,35.093-17.235,54.57c0,30.105,12.235,55.716,36.559,76.779
	c15.123,12.92,48.312,24.165,85.312,33.63v108.101c-9-1.922-17.887-4.583-24.162-9.765c-10.258-8.39-25.184-24.946-25.184-44.946
	H96.151c0,41,23.21,75.633,43.929,95.744c19.591,16.251,46.419,23.055,79.419,25.716v50.54h74v-51.228
	c19-2.168,36.234-5.975,50.812-11.88c23.125-9.253,40.979-23.372,53.616-42.514c12.603-19.019,18.911-39.518,18.911-61.408
	c0-24.095-5.251-44.365-15.792-60.722C390.438,258.356,375.897,245.419,357.214,235.972z M186.463,187.412
	c-11.854-3.948-13.831-18.542-13.831-27.62c0-9.835,4.222-17.732,12.717-23.637c7.35-5.111,20.15-8.725,34.15-10.963v75.192
	C203.5,195.961,191.637,191.625,186.463,187.412z M323.742,373.226c-7.033,5.675-18.242,9.553-30.242,11.985V294.49
	c2,0.616,4.543,1.198,6.2,1.745c13.695,4.688,29.856,10.857,35.373,17.097c5.553,6.416,8.25,14.065,8.25,23.107
	C343.323,350.452,336.82,362.737,323.742,373.226z"/>
</svg>
