<?xml version="1.0" encoding="utf-8"?>
<!-- Generator: Adobe Illustrator 15.0.2, SVG Export Plug-In . SVG Version: 6.00 Build 0)  -->
<!DOCTYPE svg PUBLIC "-//W3C//DTD SVG 1.1//EN" "http://www.w3.org/Graphics/SVG/1.1/DTD/svg11.dtd">
<svg version="1.1"
	 id="svg2" xmlns:sodipodi="http://sodipodi.sourceforge.net/DTD/sodipodi-0.dtd" xmlns:rdf="http://www.w3.org/1999/02/22-rdf-syntax-ns#" xmlns:cc="http://creativecommons.org/ns#" xmlns:svg="http://www.w3.org/2000/svg" xmlns:inkscape="http://www.inkscape.org/namespaces/inkscape" xmlns:dc="http://purl.org/dc/elements/1.1/" inkscape:version="0.48.4 r9939" sodipodi:docname="warning.svg"
	 xmlns="http://www.w3.org/2000/svg" xmlns:xlink="http://www.w3.org/1999/xlink" x="0px" y="0px" width="512px" height="512px"
	 viewBox="0 0 512 512" enable-background="new 0 0 512 512" xml:space="preserve">
<path id="path96_11_" inkscape:connector-curvature="0" fill="#D03436" d="M495.06,398.596L297.307,74.042
	c-23.163-37.972-60.769-37.972-83.916,0L15.599,398.596c-23.147,37.964-5.829,68.817,38.673,68.817l402.122,0.03
	C500.889,467.443,518.223,436.59,495.06,398.596z"/>
<path id="path98_10_" inkscape:connector-curvature="0" fill="#FFFFFF" d="M224.5,175.024v131.988
	c0,10.986,8.689,19.487,19.66,19.487h22.637c10.979,0,19.703-8.501,19.703-19.487V175.024c0-10.971-8.725-19.524-19.703-19.524
	H244.16C233.189,155.5,224.5,164.053,224.5,175.024z"/>
<path id="path100_9_" inkscape:connector-curvature="0" fill="#FFFFFF" d="M255.467,358.13c17.234,0,31.25,13.977,31.25,31.219
	c0,17.243-14.016,31.25-31.25,31.25c-17.235,0-31.227-14.007-31.227-31.25C224.24,372.106,238.232,358.13,255.467,358.13z"/>
</svg>
