<?xml version="1.0" encoding="UTF-8" standalone="no"?>
<!-- Created with Inkscape (http://www.inkscape.org/) -->

<svg
   xmlns:dc="http://purl.org/dc/elements/1.1/"
   xmlns:cc="http://creativecommons.org/ns#"
   xmlns:rdf="http://www.w3.org/1999/02/22-rdf-syntax-ns#"
   xmlns:svg="http://www.w3.org/2000/svg"
   xmlns="http://www.w3.org/2000/svg"
   xmlns:sodipodi="http://sodipodi.sourceforge.net/DTD/sodipodi-0.dtd"
   xmlns:inkscape="http://www.inkscape.org/namespaces/inkscape"
   version="1.0"
   width="512"
   height="512"
   viewBox="0 0 512 512"
   id="Layer_1"
   xml:space="preserve"
   inkscape:version="0.48.4 r9939"
   sodipodi:docname="Banking_Finance.svg"><sodipodi:namedview
   pagecolor="#ffffff"
   bordercolor="#666666"
   borderopacity="1"
   objecttolerance="10"
   gridtolerance="10"
   guidetolerance="10"
   inkscape:pageopacity="0"
   inkscape:pageshadow="2"
   inkscape:window-width="1600"
   inkscape:window-height="1148"
   id="namedview8"
   showgrid="false"
   inkscape:zoom="0.4609375"
   inkscape:cx="-104.13559"
   inkscape:cy="256"
   inkscape:window-x="-8"
   inkscape:window-y="-8"
   inkscape:window-maximized="1"
   inkscape:current-layer="Layer_1" /><metadata
   id="metadata11"><rdf:RDF><cc:Work
       rdf:about=""><dc:format>image/svg+xml</dc:format><dc:type
         rdf:resource="http://purl.org/dc/dcmitype/StillImage" /><dc:title /></cc:Work></rdf:RDF></metadata><defs
   id="defs9" />

<g
   transform="matrix(1.2704479,0,0,1.2704479,-122.97899,-44.58035)"
   id="g2988"
   style="fill:#000000;fill-opacity:1;stroke:none"><path
     d="m 264.243,112.617 c -4.242,1.471 -8.653,2.523 -12.727,4.411 -3.584,1.662 -7.225,3.483 -10.115,6.176 -4.979,4.64 -10.084,9.522 -13.213,15.566 -2.909,5.619 -4.167,12.141 -4.404,18.465 -0.201,5.35 0.968,10.853 3.118,15.756 2.111,4.814 5.676,8.94 9.356,12.693 2.397,2.444 5.549,4.059 8.597,5.615 4.358,2.225 8.952,3.967 13.534,5.684 3.165,1.186 6.454,2.009 9.681,3.014 v -88.04 l -3.827,0.66 z m 33.293,-3.529 -6.516,0.32 v 96.847 c 3.084,0.766 6.164,1.547 9.251,2.3 2.596,0.632 5.199,1.236 7.799,1.854 V 109.677 l -10.534,-0.589 z m 50.772,249.049 c 5.408,-2.854 11.25,-5.005 16.222,-8.563 4.354,-3.114 8.256,-6.959 11.464,-11.243 8.426,-11.253 11.321,-28.267 6.893,-41.608 -1.457,-4.391 -3.667,-8.623 -6.565,-12.229 -3.249,-4.041 -7.262,-7.525 -11.599,-10.368 -10.146,-6.649 -22.048,-10.371 -33.702,-13.741 v 102.428 l 17.287,-4.676 z m -42.894,7.22 2.655,-0.209 V 254.286 l -17.05,-4.196 v 113.95 l 14.395,1.317 z m -134.81,-70.467 40.049,-3.502 c 1.577,7.304 2.358,14.827 4.733,21.912 2.069,6.176 4.807,12.229 8.507,17.59 3.646,5.281 8.19,10.027 13.268,13.952 5.793,4.477 12.396,7.861 19.012,10.997 3.749,1.776 7.931,2.435 11.897,3.653 V 244.151 c -21.051,-6.24 -43.195,-13.313 -59.742,-27.746 -5.447,-4.751 -10.294,-10.305 -14.198,-16.387 -3.728,-5.809 -6.578,-12.26 -8.453,-18.903 -1.921,-6.809 -2.918,-13.962 -2.818,-21.036 0.112,-7.916 1.147,-15.924 3.447,-23.499 2.347,-7.729 5.826,-15.216 10.341,-21.912 4.688,-6.952 10.402,-13.352 16.961,-18.575 7.022,-5.591 15.041,-9.988 23.307,-13.486 8.945,-3.785 18.587,-5.653 27.958,-8.207 1.032,-0.281 2.131,-0.189 3.197,-0.283 V 35.09 h 22.95 v 36.997 c 1.588,-0.14 3.171,-0.48 4.765,-0.422 4.107,0.152 8.19,0.701 12.285,1.052 V 35.09 h 22.95 v 39.938 c 9.229,2.709 18.853,4.319 27.684,8.127 8.563,3.691 16.844,8.343 24.101,14.197 6.873,5.545 12.895,12.277 17.809,19.614 4.886,7.293 8.659,15.42 11.271,23.8 2.689,8.633 2.99,17.836 4.486,26.754 l -40.706,3.065 c -0.873,-4.76 -1.36,-9.608 -2.619,-14.281 -1.148,-4.259 -2.655,-8.447 -4.575,-12.419 -1.801,-3.727 -3.986,-7.296 -6.531,-10.56 -2.492,-3.194 -5.343,-6.145 -8.486,-8.699 -3.258,-2.645 -6.846,-4.914 -10.595,-6.798 -3.769,-1.894 -7.892,-2.982 -11.838,-4.473 v 102.718 c 22.62,6.059 46.248,13.051 64.614,27.579 6.491,5.135 12.333,11.259 17.015,18.082 4.441,6.473 7.81,13.778 10.014,21.311 2.297,7.854 3.391,16.137 3.337,24.32 -0.057,8.378 -1.23,16.85 -3.666,24.865 -2.504,8.243 -6.236,16.21 -10.997,23.391 -4.958,7.477 -10.981,14.378 -17.863,20.134 -17.239,14.418 -40.082,23.249 -62.453,25.406 v 36.937 h -22.95 v -34.725 c -0.229,0.021 -0.457,0.083 -0.686,0.065 -5.458,-0.394 -10.909,-0.864 -16.364,-1.297 v 35.956 h -22.95 V 400.32 c -0.236,-0.018 -0.48,0.01 -0.708,-0.056 -11,-3.128 -22.453,-5.01 -32.964,-9.52 -9.403,-4.035 -18.376,-9.372 -26.261,-15.895 -7.679,-6.35 -14.421,-13.981 -19.916,-22.295 -5.517,-8.347 -9.851,-17.595 -12.775,-27.164 -3.01,-9.844 -3.23,-20.333 -4.844,-30.5 z"
     id="path3"
     style="fill:#000000;fill-opacity:1;stroke:none"
     inkscape:connector-curvature="0" /><path
     d="m 264.243,112.617 c -4.242,1.471 -8.653,2.523 -12.727,4.411 -3.584,1.662 -7.225,3.483 -10.115,6.176 -4.979,4.64 -10.084,9.522 -13.213,15.566 -2.909,5.619 -4.167,12.141 -4.404,18.465 -0.201,5.35 0.968,10.853 3.118,15.756 2.111,4.814 5.676,8.94 9.356,12.693 2.397,2.444 5.549,4.059 8.597,5.615 4.358,2.225 8.952,3.967 13.534,5.684 3.165,1.186 6.454,2.009 9.681,3.014 v -88.04 l -3.827,0.66 z m 33.293,-3.529 -6.516,0.32 v 96.847 c 3.084,0.766 6.164,1.547 9.251,2.3 2.596,0.632 5.199,1.236 7.799,1.854 V 109.677 l -10.534,-0.589 z m 50.772,249.049 c 5.408,-2.854 11.25,-5.005 16.222,-8.563 4.354,-3.114 8.256,-6.959 11.464,-11.243 8.426,-11.253 11.321,-28.267 6.893,-41.608 -1.457,-4.391 -3.667,-8.623 -6.565,-12.229 -3.249,-4.041 -7.262,-7.525 -11.599,-10.368 -10.146,-6.649 -22.048,-10.371 -33.702,-13.741 v 102.428 l 17.287,-4.676 z m -42.894,7.22 2.655,-0.209 V 254.286 l -17.05,-4.196 v 113.95 l 14.395,1.317 z m -134.81,-70.467 40.049,-3.502 c 1.577,7.304 2.358,14.827 4.733,21.912 2.069,6.176 4.807,12.229 8.507,17.59 3.646,5.281 8.19,10.027 13.268,13.952 5.793,4.477 12.396,7.861 19.012,10.997 3.749,1.776 7.931,2.435 11.897,3.653 V 244.151 c -21.051,-6.24 -43.195,-13.313 -59.742,-27.746 -5.447,-4.751 -10.294,-10.305 -14.198,-16.387 -3.728,-5.809 -6.578,-12.26 -8.453,-18.903 -1.921,-6.809 -2.918,-13.962 -2.818,-21.036 0.112,-7.916 1.147,-15.924 3.447,-23.499 2.347,-7.729 5.826,-15.216 10.341,-21.912 4.688,-6.952 10.402,-13.352 16.961,-18.575 7.022,-5.591 15.041,-9.988 23.307,-13.486 8.945,-3.785 18.587,-5.653 27.958,-8.207 1.032,-0.281 2.131,-0.189 3.197,-0.283 V 35.09 h 22.95 v 36.997 c 1.588,-0.14 3.171,-0.48 4.765,-0.422 4.107,0.152 8.19,0.701 12.285,1.052 V 35.09 h 22.95 v 39.938 c 9.229,2.709 18.853,4.319 27.684,8.127 8.563,3.691 16.844,8.343 24.101,14.197 6.873,5.545 12.895,12.277 17.809,19.614 4.886,7.293 8.659,15.42 11.271,23.8 2.689,8.633 2.99,17.836 4.486,26.754 l -40.706,3.065 c -0.873,-4.76 -1.36,-9.608 -2.619,-14.281 -1.148,-4.259 -2.655,-8.447 -4.575,-12.419 -1.801,-3.727 -3.986,-7.296 -6.531,-10.56 -2.492,-3.194 -5.343,-6.145 -8.486,-8.699 -3.258,-2.645 -6.846,-4.914 -10.595,-6.798 -3.769,-1.894 -7.892,-2.982 -11.838,-4.473 v 102.718 c 22.62,6.059 46.248,13.051 64.614,27.579 6.491,5.135 12.333,11.259 17.015,18.082 4.441,6.473 7.81,13.778 10.014,21.311 2.297,7.854 3.391,16.137 3.337,24.32 -0.057,8.378 -1.23,16.85 -3.666,24.865 -2.504,8.243 -6.236,16.21 -10.997,23.391 -4.958,7.477 -10.981,14.378 -17.863,20.134 -17.239,14.418 -40.082,23.249 -62.453,25.406 v 36.937 h -22.95 v -34.725 c -0.229,0.021 -0.457,0.083 -0.686,0.065 -5.458,-0.394 -10.909,-0.864 -16.364,-1.297 v 35.956 h -22.95 V 400.32 c -0.236,-0.018 -0.48,0.01 -0.708,-0.056 -11,-3.128 -22.453,-5.01 -32.964,-9.52 -9.403,-4.035 -18.376,-9.372 -26.261,-15.895 -7.679,-6.35 -14.421,-13.981 -19.916,-22.295 -5.517,-8.347 -9.851,-17.595 -12.775,-27.164 -3.01,-9.844 -3.23,-20.333 -4.844,-30.5 z"
     id="path5"
     style="fill:#000000;fill-opacity:1;stroke:none"
     inkscape:connector-curvature="0" /></g>
</svg>