<?xml version="1.0" encoding="UTF-8" standalone="no"?>
<!-- Created with Inkscape (http://www.inkscape.org/) -->

<svg
   xmlns:dc="http://purl.org/dc/elements/1.1/"
   xmlns:cc="http://creativecommons.org/ns#"
   xmlns:rdf="http://www.w3.org/1999/02/22-rdf-syntax-ns#"
   xmlns:svg="http://www.w3.org/2000/svg"
   xmlns="http://www.w3.org/2000/svg"
   version="1.0"
   width="512"
   height="512"
   viewBox="0 0 511.99999 512"
   id="Слой_1"
   xml:space="preserve"><metadata
   id="metadata9"><rdf:RDF><cc:Work
       rdf:about=""><dc:format>image/svg+xml</dc:format><dc:type
         rdf:resource="http://purl.org/dc/dcmitype/StillImage" /><dc:title></dc:title></cc:Work></rdf:RDF></metadata><defs
   id="defs7" />
<g
   transform="matrix(2.0938554,0,0,2.0938554,-9.9583771,-17.749538)"
   id="g2986"><path
     d="M 249.281,128.795 C 247.656,84.12 205.528,78.332 205.528,78.332 L 220.8,67.929 c 0,0 -23.844,-14.095 -36.578,6.029 -2.494,-3.805 -5.353,-6.529 -8.349,-8.451 C 163.425,32.75 124.717,30.622 124.717,30.622 L 136.09,20.404 c 0,0 -30.219,-12.932 -47.27,13.068 -16.454,-26 -47.266,-7.785 -47.266,-7.785 l 19.738,13.437 c 0,0 -54.441,7.478 -56.536,65.217 22.434,-34.102 61.928,-47.24 61.928,-47.24 0,0 -30.422,15.865 -21.543,81.653 25.13,-41.593 35.906,-78.391 35.906,-78.391 0,0 -6.591,25.728 14.359,67.009 2.33,-5.326 3.986,-10.629 5.145,-15.822 5.29,19.73 10.285,43.154 13.05,68.339 -43.59,3.014 -78.29,16.757 -87.346,34.384 29.262,18.838 65.774,30.018 105.378,30.018 39.6,0 76.116,-11.18 105.379,-30.018 -7.817,-15.2 -34.701,-27.511 -69.905,-32.546 1.79,-17.021 4.609,-33.262 7.874,-48.138 0.9,4.269 2.235,8.642 4.156,13.033 16.212,-31.945 11.109,-51.854 11.109,-51.854 0,0 8.334,28.477 27.778,60.654 6.867,-50.902 -16.669,-63.175 -16.669,-63.175 0,0 30.564,10.162 47.926,36.548 z M 158.603,61.439 c -6.313,0.425 -10.958,2.407 -10.958,2.407 l 8.8,7.908 c 0,0 -5.842,0.321 -13.194,2.861 -7.794,-19.47 -25.707,-27.456 -25.707,-27.456 0,0 18.359,1.485 41.059,14.28 z m 3.4,23.111 c 0,0 -8.723,3.902 -15.342,13.035 0.222,-3.294 0.168,-6.407 -0.12,-9.341 9.261,-3.187 15.462,-3.694 15.462,-3.694 z M 106.557,63.692 c 5.638,5.991 12.651,13.572 19.411,21.221 -3.78,3.657 -7.066,8.331 -9.251,14.287 -2.811,-12.596 -6.173,-24.766 -10.16,-35.508 z m 25.077,115.575 c -1.153,0 -2.297,0.017 -3.442,0.031 -1.493,-19.878 -4.735,-48.304 -10.452,-75.4 5.467,-4.225 10.855,-7.539 15.894,-10.13 3.298,3.902 6.34,7.65 8.902,11.034 -3.015,6.937 -4.398,15.834 -1.834,27.006 5.071,-7.159 14.069,-17.41 22.111,-26.191 -5.576,26.95 -8.729,55.006 -10.162,74.501 -6.799,-0.553 -13.822,-0.851 -21.017,-0.851 z"
     id="path3" /></g>
</svg>