<?xml version="1.0" encoding="utf-8"?>
<!-- Generator: Adobe Illustrator 15.0.2, SVG Export Plug-In . SVG Version: 6.00 Build 0)  -->
<!DOCTYPE svg PUBLIC "-//W3C//DTD SVG 1.1//EN" "http://www.w3.org/Graphics/SVG/1.1/DTD/svg11.dtd">
<svg version="1.1"
	 id="svg2" xmlns:sodipodi="http://sodipodi.sourceforge.net/DTD/sodipodi-0.dtd" xmlns:rdf="http://www.w3.org/1999/02/22-rdf-syntax-ns#" xmlns:cc="http://creativecommons.org/ns#" xmlns:svg="http://www.w3.org/2000/svg" xmlns:inkscape="http://www.inkscape.org/namespaces/inkscape" xmlns:dc="http://purl.org/dc/elements/1.1/" inkscape:version="0.48.4 r9939" sodipodi:docname="warning.svg"
	 xmlns="http://www.w3.org/2000/svg" xmlns:xlink="http://www.w3.org/1999/xlink" x="0px" y="0px" width="512px" height="512px"
	 viewBox="0 0 512 512" enable-background="new 0 0 512 512" xml:space="preserve">
<linearGradient id="path101_1_" gradientUnits="userSpaceOnUse" x1="-429.519" y1="719.9668" x2="-178.5433" y2="719.9668" gradientTransform="matrix(0 -1.3332 1.3333 0 -704.0999 -134.0459)">
	<stop  offset="0" style="stop-color:#0D80B1"/>
	<stop  offset="1" style="stop-color:#0C95CA"/>
</linearGradient>
<path id="path101_3_" inkscape:connector-curvature="0" fill="url(#path101_1_)" d="M194.953,485.791
	c-0.128-0.688-0.283-1.374-0.395-2.096l-3.444-19.585c-5.833-33.415-35.321-48.396-65.781-33.5l-17.85,8.727
	c-0.627,0.31-1.203,0.619-1.804,0.894c-12.516-10.205-24.035-21.681-34.265-34.222c0.275-0.619,0.576-1.237,0.876-1.855
	l8.744-17.867c14.929-30.425-0.085-59.889-33.509-65.746l-19.567-3.419c-0.713-0.138-1.417-0.24-2.079-0.378
	c-3.375-12.902-5.764-26.217-6.966-39.994c-0.24-2.577-0.421-5.188-0.576-7.783c0.61-0.309,1.203-0.67,1.847-1.013l17.549-9.329
	c30.004-15.814,35.132-48.507,11.519-72.868l-13.813-14.285c-0.481-0.49-0.997-1.022-1.452-1.486
	c5.91-15.169,13.297-29.618,22.024-43.155c0.679,0.12,1.349,0.189,2.044,0.31l19.662,2.8c33.604,4.759,56.968-18.64,52.226-52.2
	l-2.826-19.696c-0.121-0.696-0.181-1.357-0.31-2.053c13.486-8.71,27.9-16.097,43.138-21.973c0.49,0.481,0.971,0.962,1.529,1.443
	l14.285,13.821c24.344,23.604,57.037,18.451,72.894-11.554l9.312-17.549c0.274-0.644,0.652-1.237,0.979-1.847
	c16.39,0.876,32.367,3.436,47.812,7.576c0.12,0.661,0.24,1.323,0.344,2.044l3.436,19.567c5.876,33.44,35.321,48.43,65.799,33.526
	l17.832-8.762c0.618-0.301,1.202-0.576,1.821-0.851c12.541,10.188,24.017,21.655,34.273,34.231
	c-0.258,0.601-0.602,1.202-0.876,1.838l-8.762,17.841c-14.912,30.459,0.103,59.931,33.5,65.781l19.619,3.402
	c0.67,0.154,1.357,0.266,2.027,0.395c3.419,12.902,5.772,26.268,6.975,39.986c0.241,2.603,0.413,5.205,0.584,7.816
	c-0.618,0.31-1.202,0.688-1.854,0.971l-17.558,9.32c-29.962,15.865-35.116,48.541-11.545,72.902l13.847,14.259
	c0.48,0.533,0.979,1.065,1.46,1.547c-5.893,15.117-13.297,29.601-22.041,43.12c-0.653-0.137-1.323-0.171-2.027-0.309l-19.653-2.783
	c-33.587-4.776-57.003,18.588-52.227,52.157l2.8,19.653c0.121,0.756,0.224,1.427,0.292,2.113
	c-13.469,8.71-27.865,16.098-43.12,21.973c-0.481-0.48-0.963-0.928-1.495-1.442l-14.293-13.847
	c-24.361-23.605-57.055-18.417-72.894,11.579l-9.294,17.54c-0.309,0.67-0.662,1.237-0.971,1.855
	C226.366,492.457,210.346,489.862,194.953,485.791z M357.61,255.798c0-56.169-45.595-101.781-101.781-101.781
	c-56.195,0-101.781,45.612-101.781,101.781c0,56.203,45.586,101.781,101.781,101.781C312.016,357.579,357.61,312.001,357.61,255.798
	z"/>
</svg>
