<?xml version="1.0" encoding="utf-8"?>
<!-- Generator: Adobe Illustrator 15.0.2, SVG Export Plug-In . SVG Version: 6.00 Build 0)  -->
<!DOCTYPE svg PUBLIC "-//W3C//DTD SVG 1.1//EN" "http://www.w3.org/Graphics/SVG/1.1/DTD/svg11.dtd">
<svg version="1.1"
	 id="svg2" xmlns:dc="http://purl.org/dc/elements/1.1/" xmlns:cc="http://creativecommons.org/ns#" xmlns:rdf="http://www.w3.org/1999/02/22-rdf-syntax-ns#" xmlns:svg="http://www.w3.org/2000/svg" xmlns:sodipodi="http://sodipodi.sourceforge.net/DTD/sodipodi-0.dtd" xmlns:inkscape="http://www.inkscape.org/namespaces/inkscape" inkscape:version="0.48.4 r9939" sodipodi:docname="warning.svg"
	 xmlns="http://www.w3.org/2000/svg" xmlns:xlink="http://www.w3.org/1999/xlink" x="0px" y="0px" width="512px" height="512px"
	 viewBox="-240 -240 512 512" enable-background="new -240 -240 512 512" xml:space="preserve">
<g id="Document" transform="scale(1.0666667,-1.0666667)">
	<g id="Spread" transform="translate(0,-24)">
		<g id="MouseOff">
			
				<linearGradient id="path91_1_" gradientUnits="userSpaceOnUse" x1="-636.3065" y1="-430.0502" x2="-370.5967" y2="-430.0502" gradientTransform="matrix(0 1.3333 -1.3333 0 -558.4015 676.0154)">
				<stop  offset="0" style="stop-color:#0080B1"/>
				<stop  offset="1" style="stop-color:#0996CB"/>
			</linearGradient>
			<path id="path91" inkscape:connector-curvature="0" fill="url(#path91_1_)" d="M15,244.781
				c130.151,0,235.781-105.629,235.781-235.781c0-130.151-105.63-235.781-235.781-235.781
				c-130.152,0-235.781,105.63-235.781,235.781C-220.781,139.152-115.152,244.781,15,244.781z"/>
			<path id="path93" inkscape:connector-curvature="0" fill="#FFFFFF" d="M-15.005-52.032c-0.137,4.59-0.195,8.073-0.195,10.519
				c0,14.319,2.339,26.206,6.836,37.489C-4.96,4.676,0.379,13.13,7.315,21.283c5.289,6.167,14.168,14.52,26.191,24.853
				c11.873,10.254,18.306,17.348,20.838,21.63c2.489,4.267,3.77,8.887,3.77,14.154c0,9.563-3.698,18.075-12.074,25.975
				c-8.101,7.7-17.859,11.549-30.098,11.549c-11.909,0-21.119-3.555-28.487-10.296c-7.153-6.505-12.851-17.6-15.701-35.33
				c-1.022-6.303-7.015-10.721-13.556-10.002l-35.545,4.109c-6.721,0.827-11.535,6.778-10.707,13.34
				c3.475,27.767,13.988,50.383,32.596,66.393c18.55,15.996,42.576,23.443,70.832,23.443c29.847,0,55.016-7.98,74.2-25.069
				c18.794-16.801,28.58-37.611,28.58-61.896c0-13.952-3.382-27.019-10.189-38.963C101.158,33.206,88.624,19.808,71.57,5.093
				c-11.383-9.807-17.772-16.24-20.334-19.694c-3.397-6.087-6.419-21.672-5.526-38.294c-0.144-6.519-5.598-11.7-12.262-11.7
				l-35.934-0.086C-9.09-64.682-14.789-58.494-15.005-52.032z"/>
			<path id="path95" inkscape:connector-curvature="0" fill="#FFFFFF" d="M-14.451-122.734
				c0.468,16.232,14.067,29.055,30.336,28.552c16.24-0.461,29.062-14.061,28.559-30.337c-0.461-16.262-14.061-29.069-30.329-28.552
				C-2.154-152.611-14.962-139.011-14.451-122.734z"/>
		</g>
	</g>
</g>
</svg>
