<?xml version="1.0" encoding="utf-8"?>
<!-- Generator: Adobe Illustrator 15.0.2, SVG Export Plug-In . SVG Version: 6.00 Build 0)  -->
<!DOCTYPE svg PUBLIC "-//W3C//DTD SVG 1.1//EN" "http://www.w3.org/Graphics/SVG/1.1/DTD/svg11.dtd">
<svg version="1.1"
	 id="svg2" xmlns:sodipodi="http://sodipodi.sourceforge.net/DTD/sodipodi-0.dtd" xmlns:rdf="http://www.w3.org/1999/02/22-rdf-syntax-ns#" xmlns:cc="http://creativecommons.org/ns#" xmlns:svg="http://www.w3.org/2000/svg" xmlns:inkscape="http://www.inkscape.org/namespaces/inkscape" xmlns:dc="http://purl.org/dc/elements/1.1/" inkscape:version="0.48.4 r9939" sodipodi:docname="warning.svg"
	 xmlns="http://www.w3.org/2000/svg" xmlns:xlink="http://www.w3.org/1999/xlink" x="0px" y="0px" width="512px" height="512px"
	 viewBox="0 0 512 512" enable-background="new 0 0 512 512" xml:space="preserve">
<g>
	<g>
		<path fill="#6D6E70" d="M212.915,194.975c-51.641,0-93.658-42.017-93.658-93.658c0-51.641,42.017-93.65,93.658-93.65
			c51.649,0,93.65,42.009,93.65,93.65C306.564,152.958,264.563,194.975,212.915,194.975z M212.915,41.215
			c-33.147,0-60.11,26.963-60.11,60.102c0,33.147,26.963,60.11,60.11,60.11c33.139,0,60.101-26.963,60.101-60.11
			C273.016,68.178,246.053,41.215,212.915,41.215z"/>
	</g>
	
		<linearGradient id="path98_1_" gradientUnits="userSpaceOnUse" x1="-396.2734" y1="-844.1426" x2="-300.2617" y2="-844.1426" gradientTransform="matrix(0.4125 0.911 -0.911 0.4125 -319.8982 977.1895)">
		<stop  offset="0" style="stop-color:#C4722D"/>
		<stop  offset="1" style="stop-color:#DE8A48"/>
	</linearGradient>
	<path id="path98_5_" inkscape:connector-curvature="0" fill="url(#path98_1_)" d="M218.623,119.967
		c46.399-21.025,101.078-0.41,122.096,45.981c14.759,32.623,8.96,69.365-11.958,95.591l73.37,162.023l-16.742,44.393l-52.746,5.658
		l-6.945-15.113h0.082l20.181-36.979l-40.936-9.151l-0.049,0.019l-0.033-0.089l0.049,0.004l20.215-36.797l-40.969-9.045
		l20.197-36.794l-40.952-9.059l-0.033,0.016l-11.082-24.489c-33.491-1.59-64.942-21.476-79.718-54.09
		C151.642,195.655,172.241,140.959,218.623,119.967z M260.174,211.626c21.082-9.55,30.436-34.408,20.901-55.499
		c-9.566-21.082-34.433-30.468-55.515-20.918c-21.09,9.542-30.469,34.441-20.927,55.54
		C214.184,211.823,239.075,221.176,260.174,211.626z"/>
	
		<linearGradient id="path98_2_" gradientUnits="userSpaceOnUse" x1="-871.4771" y1="-879.084" x2="-775.4631" y2="-879.084" gradientTransform="matrix(0 1 -1 0 -675.8291 1153.502)">
		<stop  offset="0" style="stop-color:#FDBC1B"/>
		<stop  offset="1" style="stop-color:#FAA819"/>
	</linearGradient>
	<path id="path98_16_" inkscape:connector-curvature="0" fill="url(#path98_2_)" d="M203.135,119.549
		c50.945-0.008,92.473,41.329,92.473,92.249c0,35.809-21.107,66.892-50.107,82.159v177.831l-33.763,33.548l-50.421-16.773
		l-0.062-16.791l0.039,0.017l33.552-25.178l-33.422-25.145l0.078,0.049v-0.082l-0.117,0.033l33.506-25.161L161.27,371.16
		l33.562-25.338l-33.6-25.322H161.2l0.008-26.703c-29.854-15.268-50.306-46.271-50.306-82.079
		C110.902,160.789,152.223,119.541,203.135,119.549z M203.168,220.185c23.154,0,41.935-18.789,41.935-41.935
		c0-23.146-18.789-41.952-41.935-41.952c-23.146-0.008-41.96,18.805-41.968,41.96C161.2,201.396,180.021,220.185,203.168,220.185z"
		/>
	<g>
		<path fill="#6D6E70" d="M238.289,155.456c-7.732,3.677-16.25,5.971-25.374,5.971c-3.35,0-6.585-0.458-9.788-0.991
			c-3.153,9.624-2.99,20.37,1.507,30.313c0.639,1.409,1.507,2.621,2.277,3.923c1.999,0.123,3.98,0.303,6.004,0.303
			c10.623,0,20.828-1.802,30.346-5.086c1.081-3.719,1.843-7.576,1.843-11.639C245.103,169.838,242.564,162.033,238.289,155.456z"/>
		<path fill="#6D6E70" d="M282.042,164.195c0.409-0.459,0.885-0.868,1.294-1.335c-0.59-2.269-1.277-4.529-2.261-6.732
			c-4.111-9.059-11.139-15.791-19.395-19.96c-0.672,0.958-1.605,1.687-2.343,2.596C268.396,145.75,276.096,154.367,282.042,164.195z
			"/>
	</g>
	<g>
		<path fill="#6D6E70" d="M135.596,48.398c-29.174,42.615-18.232,101.013,24.392,130.179c15.12,10.344,32.221,15.504,49.307,16.119
			c-2.818-10.951-3.653-22.36-2.343-33.688c-9.747-0.909-19.378-4.202-28.028-10.115c-27.34-18.707-34.367-56.194-15.644-83.551
			c18.707-27.356,56.187-34.375,83.542-15.652c3.309,2.261,6.274,4.824,8.993,7.576c7.846-8.166,17.184-14.784,27.438-19.608
			c-5.062-5.783-10.844-11.115-17.479-15.652C223.152-5.159,164.754,5.783,135.596,48.398z"/>
	</g>
</g>
</svg>
