<?xml version="1.0" encoding="UTF-8" standalone="no"?>
<!-- Created with Inkscape (http://www.inkscape.org/) -->

<svg
   xmlns:dc="http://purl.org/dc/elements/1.1/"
   xmlns:cc="http://creativecommons.org/ns#"
   xmlns:rdf="http://www.w3.org/1999/02/22-rdf-syntax-ns#"
   xmlns:svg="http://www.w3.org/2000/svg"
   xmlns="http://www.w3.org/2000/svg"
   xmlns:sodipodi="http://sodipodi.sourceforge.net/DTD/sodipodi-0.dtd"
   xmlns:inkscape="http://www.inkscape.org/namespaces/inkscape"
   version="1.1"
   width="512"
   height="512"
   viewBox="0 0 512 512"
   id="Layer_1"
   xml:space="preserve"
   inkscape:version="0.48.4 r9939"
   sodipodi:docname="Banks.svg"><sodipodi:namedview
   pagecolor="#ffffff"
   bordercolor="#666666"
   borderopacity="1"
   objecttolerance="10"
   gridtolerance="10"
   guidetolerance="10"
   inkscape:pageopacity="0"
   inkscape:pageshadow="2"
   inkscape:window-width="1600"
   inkscape:window-height="1148"
   id="namedview10"
   showgrid="false"
   inkscape:zoom="0.4609375"
   inkscape:cx="171.38983"
   inkscape:cy="256"
   inkscape:window-x="-8"
   inkscape:window-y="-8"
   inkscape:window-maximized="1"
   inkscape:current-layer="Layer_1" /><metadata
   id="metadata15"><rdf:RDF><cc:Work
       rdf:about=""><dc:format>image/svg+xml</dc:format><dc:type
         rdf:resource="http://purl.org/dc/dcmitype/StillImage" /><dc:title /></cc:Work></rdf:RDF></metadata><defs
   id="defs13" />



<path
   inkscape:connector-curvature="0"
   style="fill:none"
   id="path3"
   d="m 204.68569,128.35569 -2.85237,14.26187 c -15.68806,6.18053 -31.37612,12.35991 -47.53995,25.90869 -16.16269,13.54877 -32.8023,34.46694 -46.82571,62.51491 -14.024557,28.04796 -25.434053,63.228 -29.969327,95.93446 -4.536416,32.7076 -2.197469,62.94277 3.079422,85.97055 5.276892,23.02893 13.49173,38.84934 23.495575,53.20705 10.00156,14.35657 21.79214,27.25044 33.58157,40.14203 h 251.00891 c 11.4095,-16.63733 22.81899,-33.27694 31.37612,-53.0051 8.55712,-19.73044 14.26187,-42.54943 16.16383,-69.40853 1.90082,-26.85909 0,-57.76057 -5.94321,-85.09544 -5.94206,-27.33487 -15.92537,-51.10541 -29.23683,-74.16172 C 387.7134,201.56815 371.07379,179.22379 354.67264,165.67501 338.27149,152.12624 322.1088,147.37304 305.94497,142.6187 L 304.51878,128.35683 387.23763,15.688061 C 373.92617,21.392809 360.61585,27.097557 349.44367,25.67137 338.27149,24.245183 329.23973,15.688061 320.20684,7.1309391 307.84693,14.73765 295.48588,22.34322 284.55216,22.105903 273.61844,21.868585 264.10977,13.786098 254.60223,5.7047521 243.19274,13.786098 231.78324,21.868585 220.84952,22.105903 209.91466,22.34322 199.45672,14.73765 188.99763,7.1309391 183.76866,15.212285 178.53855,23.294772 167.36751,24.958277 156.19533,26.621781 139.08109,21.868585 121.96684,17.114248 l 82.71885,111.241442 z" /><path
   inkscape:connector-curvature="0"
   style="fill:none;stroke:#000000;stroke-width:11.40949631;stroke-miterlimit:10"
   id="path5"
   d="m 204.68569,128.35569 -2.85237,14.26187 c -15.68806,6.18053 -31.37612,12.35991 -47.53995,25.90869 -16.16269,13.54877 -32.8023,34.46694 -46.82571,62.51491 -14.024557,28.04796 -25.434053,63.228 -29.969327,95.93446 -4.536416,32.7076 -2.197469,62.94277 3.079422,85.97055 5.276892,23.02893 13.49173,38.84934 23.495575,53.20705 10.00156,14.35657 21.79214,27.25044 33.58157,40.14203 h 251.00891 c 11.4095,-16.63733 22.81899,-33.27694 31.37612,-53.0051 8.55712,-19.73044 14.26187,-42.54943 16.16383,-69.40853 1.90082,-26.85909 0,-57.76057 -5.94321,-85.09544 -5.94206,-27.33487 -15.92537,-51.10541 -29.23683,-74.16172 C 387.7134,201.56815 371.07379,179.22379 354.67264,165.67501 338.27149,152.12624 322.1088,147.37304 305.94497,142.6187 L 304.51878,128.35683 387.23763,15.688061 C 373.92617,21.392809 360.61585,27.097557 349.44367,25.67137 338.27149,24.245183 329.23973,15.688061 320.20684,7.1309391 307.84693,14.73765 295.48588,22.34322 284.55216,22.105903 273.61844,21.868585 264.10977,13.786098 254.60223,5.7047521 243.19274,13.786098 231.78324,21.868585 220.84952,22.105903 209.91466,22.34322 199.45672,14.73765 188.99763,7.1309391 183.76866,15.212285 178.53855,23.294772 167.36751,24.958277 156.19533,26.621781 139.08109,21.868585 121.96684,17.114248 l 82.71885,111.241442 z" /><line
   style="fill:none;stroke:#000000;stroke-width:19.39614296;stroke-miterlimit:10"
   stroke-miterlimit="10"
   x1="202.11398"
   y1="136.91283"
   x2="304.07037"
   y2="136.91283"
   id="line7" /><path
   inkscape:connector-curvature="0"
   style="fill:#000000;fill-opacity:1"
   id="path9"
   d="m 236.0561,250.62328 c -2.5021,0.86712 -5.10461,1.48779 -7.50631,2.60136 -2.11532,0.98008 -4.26145,2.05371 -5.96602,3.64191 -2.93567,2.73714 -5.94777,5.61576 -7.79269,9.18008 -1.71599,3.31446 -2.45646,7.1606 -2.5968,10.89037 -0.11866,3.15586 0.57161,6.40072 1.83921,9.29303 1.24478,2.83868 3.34755,5.27233 5.51763,7.48577 1.4125,1.44102 3.2711,2.39371 5.06924,3.31104 2.56942,1.31209 5.27917,2.34008 7.98208,3.35211 1.86774,0.6994 3.80621,1.18544 5.70932,1.7776 v -51.92348 l -2.25566,0.39021 m 19.6346,-2.0811 -3.84272,0.18826 v 57.11708 c 1.81868,0.45181 3.63507,0.91276 5.45602,1.35659 1.53116,0.37309 3.06573,0.72792 4.59917,1.09303 v -59.40811 l -6.21247,-0.34685 z m 29.94422,146.88015 c 3.18896,-1.6829 6.63348,-2.95164 9.56686,-5.04984 2.56714,-1.83693 4.86844,-4.10514 6.76013,-6.6312 4.96998,-6.63691 6.67912,-16.67042 4.0652,-24.53955 -0.85913,-2.58881 -2.16324,-5.08521 -3.87238,-7.21194 -1.91679,-2.38344 -4.28312,-4.43829 -6.84113,-6.11435 -5.98428,-3.92144 -13.00226,-6.11663 -19.87649,-8.10416 v 60.40986 l 10.19781,-2.75882 z m -25.29827,4.25916 1.56652,-0.12322 v -65.38326 l -10.05519,-2.47472 v 67.20194 l 8.48867,0.77926 z m -79.50594,-41.56023 23.6188,-2.06511 c 0.93102,4.30822 1.39082,8.74423 2.79191,12.92239 1.21967,3.64305 2.83412,7.21308 5.01675,10.37466 2.14955,3.11365 4.82964,5.91354 7.82463,8.22738 3.41601,2.6413 7.31121,4.63682 11.21212,6.4863 2.21116,1.04739 4.67789,1.43646 7.01569,2.15411 v -68.02341 c -12.41581,-3.6807 -25.47512,-7.85202 -35.23366,-16.3635 -3.21177,-2.80217 -6.06985,-6.07784 -8.37343,-9.66384 -2.19975,-3.42627 -3.88037,-7.23134 -4.98595,-11.14936 -1.13296,-4.015 -1.72055,-8.23424 -1.66122,-12.40555 0.0673,-4.66876 0.67658,-9.39229 2.03317,-13.85911 1.38283,-4.5581 3.4354,-8.97357 6.09838,-12.92354 2.76452,-4.09943 6.13374,-7.87483 10.00384,-10.95426 4.14165,-3.29734 8.86974,-5.89072 13.74616,-7.95356 5.27461,-2.23283 10.95997,-3.33499 16.48787,-4.8399 0.60812,-0.16658 1.25732,-0.11182 1.88484,-0.16772 v -23.01752 h 13.53509 v 21.81952 c 0.93672,-0.0822 1.87002,-0.28296 2.81016,-0.24873 2.42223,0.0901 4.82964,0.41417 7.24617,0.62068 v -22.19147 h 13.53394 v 23.55376 c 5.44347,1.59847 11.11856,2.54774 16.32813,4.79313 5.04985,2.17693 9.93425,4.92092 14.21395,8.37343 4.0538,3.26996 7.60443,7.24047 10.50244,11.56809 2.8809,4.30138 5.1069,9.09337 6.64604,14.03596 1.5882,5.09206 1.76505,10.51956 2.64586,15.77933 l -24.00672,1.80727 c -0.51457,-2.80788 -0.80209,-5.6671 -1.54485,-8.42249 -0.67772,-2.51237 -1.56538,-4.98253 -2.69834,-7.3249 -1.06223,-2.19747 -2.3515,-4.30252 -3.85185,-6.2273 -1.4684,-1.88371 -3.15016,-3.6248 -5.00535,-5.13085 -1.92135,-1.55968 -4.03668,-2.89801 -6.24898,-4.0093 -2.22257,-1.11699 -4.65393,-1.7582 -6.98147,-2.63787 v 60.57986 c 13.34113,3.57345 27.27554,7.69684 38.10772,16.26537 3.82674,3.02808 7.27355,6.63919 10.03465,10.66446 2.61848,3.81648 4.60487,8.1247 5.90442,12.56756 1.35544,4.63111 2.00122,9.51666 1.97042,14.34288 -0.0331,4.94145 -0.72679,9.93767 -2.16325,14.66576 -1.47752,4.86045 -3.67842,9.55888 -6.48629,13.79408 -2.92426,4.40977 -6.47717,8.47954 -10.53439,11.87387 -10.16814,8.50235 -23.63934,13.71307 -36.83328,14.98409 v 21.78415 h -13.53394 v -20.47891 c -0.13463,0.0137 -0.26927,0.0491 -0.4039,0.0399 -3.21976,-0.2339 -6.43495,-0.51229 -9.65129,-0.76672 v 21.20569 h -13.5328 v -22.27932 c -0.1392,-0.009 -0.28296,0.007 -0.41645,-0.0319 -6.48858,-1.84492 -13.24186,-2.95392 -19.44064,-5.61461 -5.54616,-2.38002 -10.83788,-5.52676 -15.48839,-9.3729 -4.52957,-3.74574 -8.50464,-8.24793 -11.74608,-13.14945 -3.25513,-4.9232 -5.80971,-10.37694 -7.53483,-16.02007 -1.77417,-5.80744 -1.90424,-11.99366 -2.8558,-17.9905 z" />
</svg>