<?xml version="1.0" encoding="UTF-8" standalone="no"?>
<!-- Created with Inkscape (http://www.inkscape.org/) -->

<svg
   xmlns:dc="http://purl.org/dc/elements/1.1/"
   xmlns:cc="http://creativecommons.org/ns#"
   xmlns:rdf="http://www.w3.org/1999/02/22-rdf-syntax-ns#"
   xmlns:svg="http://www.w3.org/2000/svg"
   xmlns="http://www.w3.org/2000/svg"
   version="1.0"
   width="512"
   height="512"
   viewBox="0 0 511.99999 512"
   id="Слой_1"
   xml:space="preserve"><metadata
   id="metadata11"><rdf:RDF><cc:Work
       rdf:about=""><dc:format>image/svg+xml</dc:format><dc:type
         rdf:resource="http://purl.org/dc/dcmitype/StillImage" /><dc:title></dc:title></cc:Work></rdf:RDF></metadata><defs
   id="defs9" />
<g
   transform="matrix(2.1174262,0,0,2.1174262,-12.998888,-20.014975)"
   id="g2988"><g
     id="g3">
	<path
   d="m 6.139,78.335 c 0,-8.888 1.937,-17.34 5.818,-25.357 3.874,-8.017 9.799,-14.18 17.776,-18.497 7.969,-4.309 17.404,-6.468 28.296,-6.468 16.033,0 28.668,4.575 37.905,13.725 9.237,9.149 13.855,21.349 13.855,36.598 0,15.336 -4.618,27.579 -13.855,36.729 -9.236,9.153 -21.872,13.724 -37.905,13.724 -10.892,0 -20.327,-2.155 -28.296,-6.472 C 21.755,118.008 15.83,111.84 11.957,103.824 8.076,95.806 6.139,87.311 6.139,78.335 z m 36.729,0.261 c 0,10.805 1.742,18.648 5.228,23.527 2.266,3.225 5.577,4.836 9.934,4.836 4.357,0 7.625,-1.612 9.803,-4.836 3.485,-4.879 5.228,-12.722 5.228,-23.527 0,-10.717 -1.743,-18.56 -5.228,-23.527 -2.179,-3.137 -5.446,-4.706 -9.803,-4.706 -4.356,0 -7.668,1.568 -9.934,4.706 -3.486,4.88 -5.228,12.722 -5.228,23.527 z M 168.821,28.013 h 27.631 L 85.751,232.695 h -27.33 l 110.4,-204.682 z m -24.525,153.968 c 0,-8.968 1.918,-17.443 5.751,-25.42 3.835,-7.97 9.76,-14.141 17.776,-18.497 8.018,-4.357 17.428,-6.528 28.232,-6.528 16.121,0 28.803,4.595 38.04,13.784 9.236,9.197 13.847,21.42 13.847,36.661 0,15.257 -4.61,27.472 -13.847,36.669 -9.237,9.189 -21.919,13.792 -38.04,13.792 -10.805,0 -20.215,-2.187 -28.232,-6.543 -8.017,-4.357 -13.941,-10.521 -17.776,-18.49 -3.833,-7.975 -5.751,-16.444 -5.751,-25.428 z m 36.725,0.27 c 0,10.806 1.742,18.647 5.229,23.527 2.186,3.137 5.449,4.705 9.806,4.705 4.357,0 7.669,-1.568 9.935,-4.705 3.485,-4.88 5.229,-12.722 5.229,-23.527 0,-10.805 -1.743,-18.695 -5.229,-23.662 -2.266,-3.137 -5.577,-4.705 -9.935,-4.705 -4.356,0 -7.62,1.607 -9.806,4.84 -3.486,4.88 -5.229,12.722 -5.229,23.527 z"
   id="path5" />
</g></g>
</svg>