<?xml version="1.0" encoding="utf-8"?>
<!-- Generator: Adobe Illustrator 15.0.2, SVG Export Plug-In . SVG Version: 6.00 Build 0)  -->
<!DOCTYPE svg PUBLIC "-//W3C//DTD SVG 1.1//EN" "http://www.w3.org/Graphics/SVG/1.1/DTD/svg11.dtd">
<svg version="1.1"
	 id="svg2" xmlns:dc="http://purl.org/dc/elements/1.1/" xmlns:cc="http://creativecommons.org/ns#" xmlns:rdf="http://www.w3.org/1999/02/22-rdf-syntax-ns#" xmlns:svg="http://www.w3.org/2000/svg" xmlns:sodipodi="http://sodipodi.sourceforge.net/DTD/sodipodi-0.dtd" xmlns:inkscape="http://www.inkscape.org/namespaces/inkscape" inkscape:version="0.48.4 r9939" sodipodi:docname="warning.svg"
	 xmlns="http://www.w3.org/2000/svg" xmlns:xlink="http://www.w3.org/1999/xlink" x="0px" y="0px" width="512px" height="512px"
	 viewBox="-240 -240 512 512" enable-background="new -240 -240 512 512" xml:space="preserve">
<g id="Document" transform="matrix(1.0666676,0,0,-1.0665768,-1.1374245e-5,2.36464e-5)">
	<g id="Spread" transform="translate(0,-24)">
		<g id="MouseOff">
			
				<linearGradient id="path101_1_" gradientUnits="userSpaceOnUse" x1="-648.594" y1="-486.345" x2="-475.2181" y2="-486.345" gradientTransform="matrix(0 1.3333 -1.3332 0 -552.839 674.8546)">
				<stop  offset="0" style="stop-color:#0080B1"/>
				<stop  offset="1" style="stop-color:#0996CB"/>
			</linearGradient>
			<path id="path101" inkscape:connector-curvature="0" fill="url(#path101_1_)" d="M56.142-220.503
				c-0.086,0.443-0.187,0.886-0.258,1.344l-2.231,12.69c-3.777,21.645-22.874,31.345-42.601,21.703l-11.559-5.665
				c-0.408-0.201-0.78-0.401-1.173-0.573c-8.104,6.61-15.564,14.049-22.187,22.175c0.179,0.386,0.372,0.801,0.565,1.202l5.665,11.56
				c9.67,19.714-0.057,38.799-21.701,42.589l-12.675,2.218c-0.465,0.086-0.916,0.157-1.344,0.244
				c-2.189,8.355-3.734,16.982-4.514,25.894c-0.157,1.674-0.271,3.377-0.372,5.05c0.393,0.201,0.78,0.429,1.194,0.658l11.366,6.037
				c19.433,10.244,22.752,31.417,7.46,47.197l-8.947,9.257c-0.308,0.314-0.644,0.657-0.937,0.958
				c3.826,9.829,8.611,19.186,14.262,27.955c0.444-0.079,0.872-0.121,1.323-0.2l12.739-1.817
				C1.975,6.888,17.11,22.046,14.041,43.784L12.21,56.539c-0.079,0.45-0.121,0.88-0.2,1.33c8.733,5.644,18.067,10.429,27.938,14.235
				c0.315-0.315,0.63-0.623,0.987-0.937l9.256-8.949c15.764-15.293,36.935-11.953,47.206,7.482l6.022,11.366
				c0.186,0.415,0.429,0.801,0.644,1.194c10.615-0.565,20.957-2.224,30.957-4.907c0.086-0.429,0.157-0.858,0.229-1.323l2.231-12.676
				c3.791-21.66,22.874-31.366,42.6-21.717l11.559,5.679c0.4,0.193,0.772,0.372,1.173,0.551
				c8.125-6.602,15.564-14.027,22.202-22.175c-0.172-0.386-0.386-0.78-0.572-1.188l-5.665-11.56
				c-9.67-19.728,0.058-38.813,21.687-42.604l12.703-2.203c0.443-0.1,0.887-0.171,1.316-0.257c2.217-8.355,3.748-17.01,4.521-25.895
				c0.157-1.687,0.272-3.376,0.372-5.064c-0.401-0.201-0.773-0.443-1.201-0.629l-11.359-6.037
				c-19.412-10.272-22.744-31.431-7.482-47.21l8.969-9.242c0.315-0.343,0.63-0.687,0.945-1.002
				c-3.82-9.8-8.612-19.171-14.277-27.926c-0.429,0.086-0.859,0.114-1.317,0.201l-12.731,1.803
				c-21.744,3.089-36.907-12.047-33.818-33.792l1.817-12.732c0.071-0.486,0.143-0.916,0.186-1.359
				c-8.726-5.651-18.053-10.43-27.924-14.235c-0.315,0.315-0.63,0.601-0.972,0.944l-9.256,8.956
				c-15.778,15.293-36.95,11.932-47.206-7.496l-6.022-11.36c-0.201-0.428-0.429-0.8-0.63-1.201
				C76.483-224.824,66.112-223.15,56.142-220.503z M161.484-71.546c0,36.382-29.526,65.924-65.918,65.924
				S29.648-35.165,29.648-71.546c0-36.395,29.526-65.924,65.918-65.924S161.484-107.941,161.484-71.546z"/>
			
				<linearGradient id="path103_1_" gradientUnits="userSpaceOnUse" x1="-76.9967" y1="-111.5845" x2="59.6763" y2="-111.5845" gradientTransform="matrix(0 -1.3333 1.3332 0 53.9047 101.3155)">
				<stop  offset="0" style="stop-color:#FFBE17"/>
				<stop  offset="1" style="stop-color:#FFA900"/>
			</linearGradient>
			<path id="path103" inkscape:connector-curvature="0" fill="url(#path103_1_)" d="M-91.501-5.308l-4.649,9.342
				c-7.954,15.923-25.041,19.063-38.109,7.017l-7.696-7.089c-0.272-0.279-0.543-0.529-0.801-0.765
				c-6.459,2.718-12.789,5.98-18.904,9.843c-1.173,0.744-2.325,1.488-3.441,2.246c0.065,0.351,0.1,0.722,0.157,1.095l1.724,10.315
				c2.947,17.554-9.048,30.115-26.743,28.048l-10.371-1.231c-0.351-0.064-0.737-0.1-1.073-0.136
				c-4.449,7.325-8.125,14.993-10.972,22.947c0.25,0.272,0.487,0.508,0.759,0.759l7.439,7.325
				c12.717,12.482,10.393,29.707-5.114,38.42l-9.12,5.1c-0.336,0.172-0.629,0.372-0.959,0.522c0.665,8.405,2.189,16.781,4.592,25
				c0.351,0.057,0.701,0.122,1.073,0.201l10.314,1.538c17.653,2.64,25.899,17.933,18.418,34.085l-4.356,9.493
				c-0.157,0.329-0.293,0.665-0.45,1.015c5.608,6.545,11.759,12.361,18.396,17.497c0.336-0.136,0.644-0.329,0.994-0.465l9.241-4.843
				c15.821-8.204,31.464-0.687,34.983,16.774l2.01,10.236c0.079,0.351,0.157,0.68,0.215,1.037
				c8.261,1.967,16.737,3.119,25.234,3.376c0.157-0.315,0.314-0.644,0.472-0.973l4.685-9.342
				c7.933-15.916,24.998-19.063,38.102-6.967l7.66,7.089c0.315,0.236,0.586,0.487,0.823,0.737c6.459-2.711,12.81-5.994,18.926-9.843
				c1.151-0.744,2.303-1.503,3.433-2.261c-0.057-0.358-0.093-0.73-0.172-1.094l-1.724-10.294
				c-2.925-17.539,9.062-30.122,26.743-28.047l10.35,1.23c0.386,0.022,0.744,0.057,1.116,0.114c4.427-7.282,8.104-15,10.95-22.969
				c-0.243-0.215-0.486-0.486-0.758-0.744l-7.439-7.282c-12.696-12.518-10.393-29.707,5.136-38.455l9.084-5.1
				c0.342-0.157,0.657-0.329,0.972-0.529c-0.644-8.398-2.174-16.753-4.578-25c-0.372-0.057-0.715-0.114-1.088-0.172l-10.328-1.524
				C-3.961,79.314-12.23,64-4.763,47.847l4.37-9.471c0.157-0.336,0.293-0.687,0.45-1.016c-5.586-6.545-11.78-12.382-18.396-17.525
				c-0.315,0.157-0.644,0.336-0.98,0.494l-9.277,4.821c-15.8,8.226-31.464,0.701-34.94-16.774l-2.053-10.222
				c-0.057-0.372-0.136-0.7-0.215-1.03c-8.24-1.946-16.701-3.119-25.191-3.376C-91.173-5.966-91.33-5.623-91.501-5.308z
				 M-28.945,118.885c0,36.381-29.533,65.917-65.918,65.917s-65.918-29.536-65.918-65.917c0-36.388,29.533-65.924,65.918-65.924
				S-28.945,82.498-28.945,118.885z"/>
		</g>
	</g>
</g>
</svg>
