<?xml version="1.0" encoding="utf-8"?>
<!-- Generator: Adobe Illustrator 15.0.2, SVG Export Plug-In . SVG Version: 6.00 Build 0)  -->
<!DOCTYPE svg PUBLIC "-//W3C//DTD SVG 1.1//EN" "http://www.w3.org/Graphics/SVG/1.1/DTD/svg11.dtd">
<svg version="1.1"
	 id="svg2" xmlns:sodipodi="http://sodipodi.sourceforge.net/DTD/sodipodi-0.dtd" xmlns:rdf="http://www.w3.org/1999/02/22-rdf-syntax-ns#" xmlns:cc="http://creativecommons.org/ns#" xmlns:svg="http://www.w3.org/2000/svg" xmlns:inkscape="http://www.inkscape.org/namespaces/inkscape" xmlns:dc="http://purl.org/dc/elements/1.1/" inkscape:version="0.48.4 r9939" sodipodi:docname="warning.svg"
	 xmlns="http://www.w3.org/2000/svg" xmlns:xlink="http://www.w3.org/1999/xlink" x="0px" y="0px" width="512px" height="512px"
	 viewBox="0 0 512 512" enable-background="new 0 0 512 512" xml:space="preserve">
<g id="Document_10_" transform="scale(1.0666667,-1.0666667)">
	<g id="Spread_10_" transform="translate(0,-24)">
		<g id="MouseOff_10_">
			<linearGradient id="path93_1_" gradientUnits="userSpaceOnUse" x1="240.0205" y1="-448.0504" x2="240.0205" y2="43.5909">
				<stop  offset="0" style="stop-color:#0D80B1"/>
				<stop  offset="1" style="stop-color:#0C95CA"/>
			</linearGradient>
			<path id="path93" inkscape:connector-curvature="0" fill="url(#path93_1_)" d="M198.887-299.459
				c-0.187,6.273-0.266,11.028-0.266,14.382c0,19.646,3.206,35.931,9.37,51.396c4.665,11.915,11.983,23.499,21.491,34.674
				c7.249,8.453,19.42,19.901,35.901,34.064c16.274,14.055,25.092,23.778,28.564,29.647c3.412,5.849,5.168,12.18,5.168,19.4
				c0,13.108-5.069,24.776-16.55,35.605c-11.105,10.553-24.479,15.829-41.256,15.829c-16.323,0-28.948-4.872-39.047-14.114
				c-9.804-8.916-17.615-24.125-21.521-48.427c-1.4-8.64-9.616-14.696-18.582-13.71l-48.723,5.632
				c-9.212,1.134-15.81,9.291-14.676,18.286c4.764,38.061,19.173,69.06,44.679,91.005c25.426,21.925,58.359,32.133,97.091,32.133
				c40.911,0,75.412-10.938,101.706-34.362c25.762-23.03,39.175-51.553,39.175-84.841c0-19.124-4.635-37.035-13.965-53.408
				c-9.33-16.402-26.512-34.767-49.887-54.936c-15.603-13.434-24.361-22.27-27.872-27.004c-4.655-8.325-8.797-29.67-7.575-52.434
				c-0.197-8.956-7.673-16.139-16.806-16.139h-49.255C206.994-316.781,199.183-308.335,198.887-299.459z"/>
			<linearGradient id="path95_1_" gradientUnits="userSpaceOnUse" x1="240.0096" y1="-448.1511" x2="240.0095" y2="43.6041">
				<stop  offset="0" style="stop-color:#0D80B1"/>
				<stop  offset="1" style="stop-color:#0C95CA"/>
			</linearGradient>
			<path id="path95" inkscape:connector-curvature="0" fill="url(#path95_1_)" d="M199.646-396.428
				c0.641,22.251,19.282,39.846,41.582,39.136c22.26-0.631,39.836-19.253,39.145-41.582c-0.631-22.289-19.272-39.846-41.572-39.136
				C216.502-437.379,198.946-418.719,199.646-396.428z"/>
		</g>
	</g>
</g>
</svg>
