<?xml version="1.0" encoding="utf-8"?>
<!-- Generator: Adobe Illustrator 15.0.2, SVG Export Plug-In . SVG Version: 6.00 Build 0)  -->
<!DOCTYPE svg PUBLIC "-//W3C//DTD SVG 1.1//EN" "http://www.w3.org/Graphics/SVG/1.1/DTD/svg11.dtd">
<svg version="1.1"
	 id="svg2" xmlns:sodipodi="http://sodipodi.sourceforge.net/DTD/sodipodi-0.dtd" xmlns:rdf="http://www.w3.org/1999/02/22-rdf-syntax-ns#" xmlns:cc="http://creativecommons.org/ns#" xmlns:svg="http://www.w3.org/2000/svg" xmlns:inkscape="http://www.inkscape.org/namespaces/inkscape" xmlns:dc="http://purl.org/dc/elements/1.1/" inkscape:version="0.48.4 r9939" sodipodi:docname="warning.svg"
	 xmlns="http://www.w3.org/2000/svg" xmlns:xlink="http://www.w3.org/1999/xlink" x="0px" y="0px" width="512px" height="512px"
	 viewBox="0 0 512 512" enable-background="new 0 0 512 512" xml:space="preserve">
<sodipodi:namedview  id="namedview102" inkscape:window-y="-8" inkscape:pageopacity="0" inkscape:pageshadow="2" inkscape:window-x="-8" inkscape:current-layer="svg2" inkscape:window-height="1058" inkscape:window-width="1858" objecttolerance="10" inkscape:cx="15" inkscape:cy="15" showgrid="false" bordercolor="#666666" inkscape:zoom="7.8666667" gridtolerance="10" pagecolor="#ffffff" borderopacity="1" guidetolerance="10" inkscape:window-maximized="1">
	</sodipodi:namedview>
<g id="Document" transform="scale(1.0666667,-1.0666667)">
	<g id="Spread" transform="translate(0,-24)">
		<g id="MouseOff">
			
				<linearGradient id="path96_1_" gradientUnits="userSpaceOnUse" x1="-976.2123" y1="-1351.7003" x2="-876.1208" y2="-1351.7003" gradientTransform="matrix(0.7805 1.1889 -1.6447 0.0862 -1236.1757 836.0345)">
				<stop  offset="0" style="stop-color:#3EB41E"/>
				<stop  offset="1" style="stop-color:#6CC12C"/>
			</linearGradient>
			<path id="path96" inkscape:connector-curvature="0" fill="url(#path96_1_)" d="M7.5-452.25v62.098
				c0,20.546,7.617,32.386,19.924,41.081c29.178,20.217,76.678,30.526,115.091,44.686C171.296-332.1,206.38-348.38,244.16-348.38
				c37.751,0,72.819,16.28,101.601,43.995c38.415-14.16,85.577-24.469,114.762-44.687c12.314-8.694,19.477-20.533,19.477-41.08
				v-62.098H7.5z"/>
			
				<linearGradient id="path98_1_" gradientUnits="userSpaceOnUse" x1="-820.6941" y1="-1047.121" x2="-608.0687" y2="-1047.121" gradientTransform="matrix(0 1.4222 -1.4222 0 -1244.9833 833.5705)">
				<stop  offset="0" style="stop-color:#C5722D"/>
				<stop  offset="1" style="stop-color:#DD8A47"/>
			</linearGradient>
			<path id="path98" inkscape:connector-curvature="0" fill="url(#path98_1_)" d="M168.423-293.339
				c21.615,11.161,25.056,25.479,25.056,46.993c0,41.089-52.854,66.763-52.854,148.94v20.555c0,82.177,64.221,97.57,103.594,97.57
				c39.366,0,103.594-15.393,103.594-97.57v-20.555c0-82.177-51.923-107.851-51.923-148.94c0-21.514,2.547-35.832,24.163-46.993
				c-22.624-16.323-48.435-25.551-75.804-25.551C216.865-318.891,191.039-309.662,168.423-293.339z"/>
		</g>
	</g>
</g>
</svg>
