<?xml version="1.0" encoding="utf-8"?>
<!-- Generator: Adobe Illustrator 15.0.2, SVG Export Plug-In . SVG Version: 6.00 Build 0)  -->
<!DOCTYPE svg PUBLIC "-//W3C//DTD SVG 1.1//EN" "http://www.w3.org/Graphics/SVG/1.1/DTD/svg11.dtd">
<svg version="1.1"
	 id="svg2" xmlns:sodipodi="http://sodipodi.sourceforge.net/DTD/sodipodi-0.dtd" xmlns:rdf="http://www.w3.org/1999/02/22-rdf-syntax-ns#" xmlns:cc="http://creativecommons.org/ns#" xmlns:svg="http://www.w3.org/2000/svg" xmlns:inkscape="http://www.inkscape.org/namespaces/inkscape" xmlns:dc="http://purl.org/dc/elements/1.1/" inkscape:version="0.48.4 r9939" sodipodi:docname="warning.svg"
	 xmlns="http://www.w3.org/2000/svg" xmlns:xlink="http://www.w3.org/1999/xlink" x="0px" y="0px" width="512px" height="512px"
	 viewBox="0 0 512 512" enable-background="new 0 0 512 512" xml:space="preserve">
<linearGradient id="path91_2_" gradientUnits="userSpaceOnUse" x1="226.9819" y1="1042.6973" x2="203.8716" y2="696.0436" gradientTransform="matrix(1.3334 0 0 1.3333 -25.062 -810.5745)">
	<stop  offset="0" style="stop-color:#343434"/>
	<stop  offset="1" style="stop-color:#636363"/>
</linearGradient>
<path id="path91_1_" inkscape:connector-curvature="0" fill="url(#path91_2_)" d="M109.5,46.783v417.991
	c0,20.796,17.346,37.727,38.15,37.727h217.515c20.811,0,37.335-16.931,37.335-37.727V46.783c0-20.811-16.524-37.283-37.335-37.283
	H147.65C126.846,9.5,109.5,25.972,109.5,46.783z"/>
<path id="path93_1_" inkscape:connector-curvature="0" fill="#FFFFFF" d="M125.5,86.5v339h262v-339H125.5z"/>
<g id="Group_4_">
	<path id="path96_4_" inkscape:connector-curvature="0" fill="#FFFFFF" d="M225.5,55.5v-0.187c-4,0-7.659-3.456-7.659-7.71
		c0-4.254,3.481-7.71,7.735-7.71l62.084,0.023c4.066,0.203,7.238,3.576,7.238,7.688c0,4.133-3.398,7.506-7.398,7.71V55.5H225.5z"/>
</g>
<path id="path98_3_" inkscape:connector-curvature="0" fill="#FFFFFF" d="M256.404,440.815c12.762,0,23.137,10.36,23.137,23.13
	s-10.375,23.13-23.137,23.13c-12.77,0-23.138-10.36-23.138-23.13S243.634,440.815,256.404,440.815z"/>
<g>
	<polygon fill="#1EA8E0" points="227.5,251.405 227.5,168.388 151.5,183.661 151.5,252.226 	"/>
	<polygon fill="#1EA8E0" points="238.5,251.288 361.5,249.96 361.5,141.405 238.5,166.2 	"/>
	<polygon fill="#1EA8E0" points="238.5,261.649 238.5,346.571 361.5,370.595 361.5,262.704 	"/>
	<polygon fill="#1EA8E0" points="227.5,261.571 151.5,260.897 151.5,329.618 227.5,344.423 	"/>
</g>
</svg>
